<svg xmlns="http://www.w3.org/2000/svg" width="256" height="256"><path fill-opacity=".016" d="M0 128.004v128.004l128.25-.254 128.25-.254.254-127.75L257.008 0H0v128.004m.485.496c0 70.4.119 99.053.265 63.672.146-35.38.146-92.98 0-128C.604 29.153.485 58.1.485 128.5" fill="#1976D2" fill-rule="evenodd"/><path fill-opacity=".53" d="M39.385 14.617c-5.402 1.916-11.908 7.571-14.658 12.74-1.817 3.417-2.233 5.959-2.375 14.509l-.171 10.366-5.741 2.334C9.757 57.282 4.791 61.734 1.989 67.522.426 70.752 0 73.693 0 81.264v9.632l4.891 5.802c2.69 3.191 15.402 17.608 28.25 32.037L56.5 154.97l11.485 37.19 11.485 37.189 4.596 4.719C90.72 240.899 95.409 243 104 243c7.683 0 12.256-1.713 19.239-7.209l3.74-2.942 2.76 1.947c8.945 6.31 19.526 9.315 27.519 7.815 4.882-.916 11.825-5.798 15.395-10.827 2.247-3.165 6.145-14.133 14.916-41.979l11.873-37.695 26.361-28.305c14.498-15.568 27.172-30.037 28.163-32.153 1.11-2.371 2.008-3.331 2.339-2.5.295.741.573-3.058.616-8.444.043-5.386-.379-10.336-.938-11-.56-.664-2.027-2.764-3.262-4.666-2.977-4.588-9.668-9.586-15.702-11.729l-4.892-1.737.576-8.156c.957-13.565-3.189-22.065-13.138-26.932-9.828-4.809-12.749-4.57-54.222 4.433l-37.157 8.065-37.032-7.993c-38.211-8.248-44.356-9.005-51.769-6.376m7.758 23.273c-.91.577-1.111 1.643-.609 3.235.994 3.154 14.936 17.43 18.309 18.747C68.292 61.218 125.145 74 127.685 74c1.066 0 16.016-3.141 33.221-6.979 34.145-7.618 33.501-7.356 41.656-16.927 6.931-8.133 7.721-10.337 4.351-12.14-1.686-.903-9.462.546-40.513 7.549l-38.426 8.667-38.763-8.585c-21.32-4.722-39.202-8.578-39.737-8.57-.536.009-1.585.403-2.331.875M.37 81c0 5.775.165 8.138.367 5.25.202-2.888.202-7.612 0-10.5S.37 75.225.37 81m23.83-2.8c-.66.66-1.2 1.783-1.2 2.496 0 .713 11.813 14.251 26.25 30.084 14.438 15.834 27.044 29.716 28.015 30.849.97 1.134 6.492 17.702 12.269 36.818 5.777 19.116 10.956 35.6 11.508 36.632.552 1.031 1.837 2.321 2.855 2.866 3.024 1.619 5.027-1.786 8.015-13.624l2.731-10.821-9.572-30.761-9.571-30.762-22.881-24.738L49.738 82.5l-10.119-2.741C28.322 76.699 25.942 76.458 24.2 78.2m191.098 1.645L205.096 82.5l-23.274 25.361-23.274 25.362-9.231 30.138-9.23 30.139 3.067 10.5c1.687 5.775 3.703 11.512 4.48 12.75 1.684 2.683 4.926 2.943 6.228.5.513-.963 5.742-17.885 11.619-37.605l10.685-35.854 26.554-29.639c14.604-16.302 27.22-30.657 28.035-31.901 1.189-1.815 1.237-2.556.241-3.756-1.636-1.971-3.579-1.804-15.698 1.35m-69.754 15.817-17.957 4.44-17.043-3.956c-9.374-2.176-17.117-3.886-17.207-3.801-.089.085 5.094 6.01 11.519 13.167l11.682 13.012 4.874 15.988c2.681 8.793 5.166 16.552 5.522 17.241.357.689 3.065-6.555 6.018-16.099l5.369-17.351 12.932-13.652c7.113-7.508 12.778-13.601 12.59-13.54-.189.061-8.423 2.109-18.299 4.551" fill="#1976D2" fill-rule="evenodd"/><path fill-opacity=".05" d="M40.205 14.894c-6.981 2.412-12.125 6.708-15.201 12.696-2.213 4.31-2.495 6.066-2.426 15.103.064 8.512-.187 10.298-1.5 10.651-1.028.276-.823.464.586.54 1.431.077 5.921 4.32 13.25 12.52C41.011 73.226 46 79.006 46 79.247c0 .242-3.937-.613-8.75-1.9-4.812-1.287-9.505-2.342-10.429-2.344-2.526-.005-4.969 2.947-4.625 5.59.184 1.418 11.151 14.236 27.788 32.479l27.484 30.137 7.253 24.145c7.236 24.084 9.288 32.412 4.719 19.146-1.325-3.85-3.334-8.883-4.463-11.185l-2.052-4.184-8.051-.702c-6.237-.544-8.482-1.165-9.963-2.754-1.051-1.129-1.911-2.444-1.911-2.923 0-.478-.498-.562-1.107-.186-.754.466-.88-.033-.393-1.566.519-1.635.382-2.045-.5-1.5-.882.545-1.019.135-.5-1.5.532-1.676.392-2.051-.55-1.469-.921.569-1.112.195-.701-1.376.311-1.187.184-1.922-.282-1.635-.465.288-.785-.289-.71-1.283.173-2.29-30.1-36.452-31.523-35.572-.574.354-.75.17-.392-.41.358-.579-.889-2.406-2.773-4.06-1.883-1.654-3.207-3.224-2.942-3.489.266-.265-1.496-2.104-3.915-4.086C9.018 100.315 1.992 91.454.977 86.774L.05 82.5l.466 4.823c.454 4.697 1.175 5.62 27.769 35.5 15.016 16.872 27.65 31.244 28.074 31.938.425.693 5.871 17.728 12.103 37.856 11.16 36.043 11.397 36.664 15.684 41.074 11.525 11.852 26.734 12.64 38.518 1.994l3.89-3.515 5.8 3.899c15.707 10.559 30.874 8.654 40.672-5.106 1.15-1.615 7.443-19.858 13.985-40.54s12.478-38.349 13.192-39.258c.713-.91 12.547-13.742 26.297-28.517 24.466-26.288 28.357-31.092 28.473-35.148.042-1.463.282-1.646.892-.684.484.763.835-2.285.835-7.25 0-4.711-.299-8.566-.665-8.566-.365 0-1.442-1.631-2.393-3.624-.95-1.993-1.993-3.359-2.317-3.035-.324.324-2.377-.941-4.563-2.812-2.185-1.871-6.738-4.534-10.118-5.917-3.379-1.383-5.469-2.532-4.644-2.554 2.569-.066 11.456 4.526 15.315 7.914 2.027 1.779 3.685 2.792 3.685 2.25 0-1.603-6.616-6.173-13.374-9.238-5.696-2.582-6.279-3.124-6.1-5.67.136-1.921.061-2.083-.235-.51-.557 2.954-2.018 3.53-18.291 7.203-7.425 1.676-14.378 3.319-15.451 3.651-1.143.354.838-2.449 4.791-6.777 6.694-7.329 8.411-10.482 7.293-13.394-1.262-3.291-4.923-3.372-19.705-.438-47.054 9.34-56.527 11.262-59.034 11.981-1.966.564-7.038-.225-17.314-2.695l-14.534-3.493 4.976-7.374 4.976-7.375-3.749-1.066c-6.552-1.864-43.504-10.86-49.891-12.146-5.334-1.074-7.001-1.004-12.676.532-4.1 1.11-8.146 3.074-10.858 5.27L27.5 25.184l4.394-4.106c5.575-5.209 12.971-7.543 21.537-6.796 3.73.325 5.105.218 3.569-.277-4.295-1.384-11.285-1.014-16.795.889m163.557-1.187c1.244.239 3.044.23 4-.02s-.062-.446-2.262-.435c-2.2.011-2.982.216-1.738.455m8.051.976c.721.289 1.584.253 1.916-.079.332-.332-.258-.568-1.312-.525-1.165.048-1.402.285-.604.604M62 16c1.375.44 3.4.801 4.5.801 1.584 0 1.48-.167-.5-.801-1.375-.44-3.4-.801-4.5-.801-1.584 0-1.48.167.5.801m131.813-.317c.721.289 1.584.253 1.916-.079.332-.332-.258-.568-1.312-.525-1.165.048-1.402.285-.604.604m-5 1c.721.289 1.584.253 1.916-.079.332-.332-.258-.568-1.312-.525-1.165.048-1.402.285-.604.604m-119.063.979c.688.278 1.813.278 2.5 0 .688-.277.125-.504-1.25-.504s-1.937.227-1.25.504m5.063 1.021c.721.289 1.584.253 1.916-.079.332-.332-.258-.568-1.312-.525-1.165.048-1.402.285-.604.604m105 0c.721.289 1.584.253 1.916-.079.332-.332-.258-.568-1.312-.525-1.165.048-1.402.285-.604.604m45.371 2.956c1.986 2.277 3.923 5.124 4.305 6.326.381 1.202.911 1.969 1.176 1.703.877-.877-2.432-6.119-5.789-9.168-3.281-2.98-3.279-2.972.308 1.139M78.75 19.662c.688.278 1.813.278 2.5 0 .688-.277.125-.504-1.25-.504s-1.937.227-1.25.504m96.063.021c.721.289 1.584.253 1.916-.079.332-.332-.258-.568-1.312-.525-1.165.048-1.402.285-.604.604m-91.063.979c.688.278 1.813.278 2.5 0 .688-.277.125-.504-1.25-.504s-1.937.227-1.25.504m87.063.021c.721.289 1.584.253 1.916-.079.332-.332-.258-.568-1.312-.525-1.165.048-1.402.285-.604.604m-82 1c.721.289 1.584.253 1.916-.079.332-.332-.258-.568-1.312-.525-1.165.048-1.402.285-.604.604m77 0c.721.289 1.584.253 1.916-.079.332-.332-.258-.568-1.312-.525-1.165.048-1.402.285-.604.604m-72 1c.721.289 1.584.253 1.916-.079.332-.332-.258-.568-1.312-.525-1.165.048-1.402.285-.604.604m3.937.979c.688.278 1.813.278 2.5 0 .688-.277.125-.504-1.25-.504s-1.937.227-1.25.504m59.063.021c.721.289 1.584.253 1.916-.079.332-.332-.258-.568-1.312-.525-1.165.048-1.402.285-.604.604m-54 1c.721.289 1.584.253 1.916-.079.332-.332-.258-.568-1.312-.525-1.165.048-1.402.285-.604.604m49 0c.721.289 1.584.253 1.916-.079.332-.332-.258-.568-1.312-.525-1.165.048-1.402.285-.604.604m-44 1c.721.289 1.584.253 1.916-.079.332-.332-.258-.568-1.312-.525-1.165.048-1.402.285-.604.604m39 0c.721.289 1.584.253 1.916-.079.332-.332-.258-.568-1.312-.525-1.165.048-1.402.285-.604.604m-35.063.979c.688.278 1.813.278 2.5 0 .688-.277.125-.504-1.25-.504s-1.937.227-1.25.504m31.063.021c.721.289 1.584.253 1.916-.079.332-.332-.258-.568-1.312-.525-1.165.048-1.402.285-.604.604m-26 1c.721.289 1.584.253 1.916-.079.332-.332-.258-.568-1.312-.525-1.165.048-1.402.285-.604.604m21 0c.721.289 1.584.253 1.916-.079.332-.332-.258-.568-1.312-.525-1.165.048-1.402.285-.604.604m-16 1c.721.289 1.584.253 1.916-.079.332-.332-.258-.568-1.312-.525-1.165.048-1.402.285-.604.604m10.937-.021c.688.278 1.813.278 2.5 0 .688-.277.125-.504-1.25-.504s-1.937.227-1.25.504m-6.5 1.027c.963.252 2.537.252 3.5 0 .963-.251.175-.457-1.75-.457s-2.713.206-1.75.457M231.158 33c0 1.375.227 1.938.504 1.25.278-.687.278-1.812 0-2.5-.277-.687-.504-.125-.504 1.25m1.114 7c0 2.475.195 3.487.434 2.25.238-1.237.238-3.263 0-4.5-.239-1.237-.434-.225-.434 2.25M46.465 38.057c-.359.581-.368 2.194-.019 3.584.41 1.632.266 2.299-.406 1.884-2.929-1.81.284 1.886 13.806 15.881C76.967 77.127 76.924 77.013 70.17 86.643 67.876 89.912 66 93.088 66 93.7c0 1.202 11.752 14.874 23.963 27.878 4.172 4.443 7.654 8.991 7.738 10.107.151 1.996 5.536 20.286 13.48 45.779l4.04 12.965 5.438-16.965c5.306-16.553 5.52-17.96 3.869-25.464-.303-1.375.177-.559 1.065 1.812.888 2.372 1.74 4.172 1.892 4 .152-.171 2.788-8.34 5.859-18.151l5.582-17.839 12.605-13.01c6.932-7.155 12.45-13.164 12.261-13.353-.188-.189-8.374 1.6-18.191 3.975l-17.848 4.318-16.996-3.923c-9.348-2.157-17.178-3.742-17.398-3.521-.221.221 4.793 6.188 11.143 13.259l11.545 12.857 4.049 12.882c2.227 7.085 3.87 13.061 3.652 13.279-.218.219-2.258-5.561-4.532-12.844-4.13-13.229-4.141-13.249-11.925-21.881-25.578-28.367-30.688-33.733-31.594-33.173-.553.342-.724.165-.379-.392.683-1.106-5.61-8.524-19.739-23.27L46.5 43.549l9.121 8.726c5.017 4.799 9.967 8.761 11 8.804 1.034.043 1.33.301.659.573-1.97.799 24.085 28.859 27.022 29.102 1.336.111 6.303 1.105 11.038 2.209s10.533 2.244 12.885 2.534c2.351.29 5.625.771 7.275 1.07 1.69.306 5.838-.322 9.5-1.438 12.107-3.689 28.416-7.196 30.964-6.659 1.395.295 3.886.123 5.536-.381 2.198-.672 2.465-.959 1-1.073-1.1-.085.137-.813 2.75-1.616 2.613-.803 4.75-1.683 4.75-1.955s-1.604-3.68-3.564-7.572c-1.96-3.893-3.423-7.188-3.25-7.323.173-.135 4.835-1.468 10.361-2.963 10.971-2.968 14.602-4.546 10.523-4.572-2.249-.014-2.116-.284 1.778-3.617C202.128 52.023 209 43.155 209 40.427c0-4.515-3.332-4.141-43.075 4.829l-37.82 8.537-38.104-8.397C69.043 40.778 50.821 37 49.507 37s-2.683.476-3.042 1.057M5.676 62.25c-3.051 4.089-4.687 7.241-4.637 8.934.022.724.714-.239 1.538-2.14.825-1.9 2.63-4.938 4.012-6.75C7.971 60.482 8.877 59 8.602 59c-.275 0-1.592 1.462-2.926 3.25m192.137-1.567c.721.289 1.584.253 1.916-.079.332-.332-.258-.568-1.312-.525-1.165.048-1.402.285-.604.604m-9 1c.721.289 1.584.253 1.916-.079.332-.332-.258-.568-1.312-.525-1.165.048-1.402.285-.604.604m-118 1c.721.289 1.584.253 1.916-.079.332-.332-.258-.568-1.312-.525-1.165.048-1.402.285-.604.604m112.937-.021c.688.278 1.813.278 2.5 0 .688-.277.125-.504-1.25-.504s-1.937.227-1.25.504m-3.937 1.021c.721.289 1.584.253 1.916-.079.332-.332-.258-.568-1.312-.525-1.165.048-1.402.285-.604.604m-100 1c.721.289 1.584.253 1.916-.079.332-.332-.258-.568-1.312-.525-1.165.048-1.402.285-.604.604m94.937-.021c.688.278 1.813.278 2.5 0 .688-.277.125-.504-1.25-.504s-1.937.227-1.25.504m-3.937 1.021c.721.289 1.584.253 1.916-.079.332-.332-.258-.568-1.312-.525-1.165.048-1.402.285-.604.604m-4 1c.721.289 1.584.253 1.916-.079.332-.332-.258-.568-1.312-.525-1.165.048-1.402.285-.604.604m-74 1c.721.289 1.584.253 1.916-.079.332-.332-.258-.568-1.312-.525-1.165.048-1.402.285-.604.604m69 0c.721.289 1.584.253 1.916-.079.332-.332-.258-.568-1.312-.525-1.165.048-1.402.285-.604.604m-5 1c.721.289 1.584.253 1.916-.079.332-.332-.258-.568-1.312-.525-1.165.048-1.402.285-.604.604m-55 1c.721.289 1.584.253 1.916-.079.332-.332-.258-.568-1.312-.525-1.165.048-1.402.285-.604.604m51 0c.721.289 1.584.253 1.916-.079.332-.332-.258-.568-1.312-.525-1.165.048-1.402.285-.604.604m-42 2c.721.289 1.584.253 1.916-.079.332-.332-.258-.568-1.312-.525-1.165.048-1.402.285-.604.604m33 0c.721.289 1.584.253 1.916-.079.332-.332-.258-.568-1.312-.525-1.165.048-1.402.285-.604.604m-29 1c.721.289 1.584.253 1.916-.079.332-.332-.258-.568-1.312-.525-1.165.048-1.402.285-.604.604m20 1c.721.289 1.584.253 1.916-.079.332-.332-.258-.568-1.312-.525-1.165.048-1.402.285-.604.604m-11 1c.721.289 1.584.253 1.916-.079.332-.332-.258-.568-1.312-.525-1.165.048-1.402.285-.604.604M23.384 78.442c-.304.792-.403 2.129-.219 2.969.184.84 12.71 15.076 27.835 31.634l27.5 30.108 10.2 33.673c12.14 40.076 11.728 38.557 10.186 37.603-1.561-.964-.286 1.296 2.437 4.321 2.55 2.832 4.835 2.857 7.272.078 1.048-1.194 1.266-1.796.485-1.336-1.112.655-1.241.421-.596-1.078.453-1.053 2.089-6.607 3.635-12.343l2.812-10.429-9.215-30.428-9.216-30.428-20.847-22.643C64.187 97.689 53.575 86.235 52.072 84.688c-2.052-2.11-5.087-3.416-12.153-5.23-10.874-2.791-15.739-3.09-16.535-1.016m193.616.63a28614.42 28614.42 0 0 0-9.594 2.369c-1.666.413-37.174 37.81-47.107 49.615-1.516 1.802-5.377 12.826-11.393 32.533l-9.099 29.806 2.153 7.412c1.185 4.077 1.959 7.608 1.72 7.846-.239.239-1.251-2.583-2.249-6.272l-1.816-6.706-5.816 17.413c-3.2 9.576-5.639 17.862-5.42 18.412.766 1.932 11.181 7.431 16.852 8.898 6.414 1.659 11.487 1.209 16.903-1.502 4.25-2.127 9.357-6.997 11.275-10.752 2.451-4.799 13.733-42.33 13.168-43.804-.338-.882-.127-1.18.542-.767.74.458.864-.052.381-1.573-.532-1.676-.392-2.051.55-1.469.921.569 1.112.195.701-1.376-.362-1.383-.182-1.921.5-1.5.682.421.861-.117.5-1.5-.311-1.187-.239-1.957.159-1.711 1.031.638 7.288-20.315 6.464-21.648-.444-.718-.219-.818.641-.286.957.591 1.151.365.698-.815-.417-1.086 1.029-3.572 4.313-7.415 5.468-6.397 5.462-6.293.955-15.28l-2.757-5.5 6.278-8.347c3.453-4.592 9.64-12.242 13.749-17 10.638-12.321 13.477-15.849 11.488-14.281-2.011 1.587-2.239.901-.581-1.753.637-1.02.876-2.589.531-3.487-.805-2.099-4.903-1.977-14.689.44M.232 86c0 1.925.206 2.713.457 1.75.252-.963.252-2.537 0-3.5-.251-.963-.457-.175-.457 1.75M184 87.216l-17.5 3.842-13.235 13.221L140.03 117.5l-8.572 27.381c-4.714 15.06-8.326 28.021-8.026 28.802.3.782.181 1.196-.263.921-.837-.517-5.667 13.232-4.913 13.985.233.233 1.251-2.308 2.262-5.647l1.838-6.071 9.465.315 9.465.314 1.193-3.491c.657-1.92 1.396-2.885 1.643-2.144.247.741 2.154-4.313 4.239-11.232 2.085-6.918 3.462-13.11 3.06-13.76-.421-.681-.303-.918.279-.558.803.496 5.385-11.975 5.727-15.586.04-.423 3.743-4.248 8.228-8.5 9.018-8.546 36.812-38.155 36.22-38.584-.206-.149-8.25 1.458-17.875 3.571m1.813-2.533c.721.289 1.584.253 1.916-.079.332-.332-.258-.568-1.312-.525-1.165.048-1.402.285-.604.604m-5 1c.721.289 1.584.253 1.916-.079.332-.332-.258-.568-1.312-.525-1.165.048-1.402.285-.604.604m22.006 28.788-26.344 29.471-7.805 26.128c-4.293 14.371-7.61 26.323-7.373 26.561.238.237 3.976-11.522 8.307-26.133l7.874-26.564 25.011-27.809C230.145 85.376 230.473 85 229.704 85c-.297 0-12.395 13.262-26.885 29.471M175.75 86.662c.688.278 1.813.278 2.5 0 .688-.277.125-.504-1.25-.504s-1.937.227-1.25.504m-7.937 1.021c.721.289 1.584.253 1.916-.079.332-.332-.258-.568-1.312-.525-1.165.048-1.402.285-.604.604M17 108.378c0 .207.788.995 1.75 1.75 1.586 1.243 1.621 1.208.378-.378-1.307-1.666-2.128-2.195-2.128-1.372m141.872 21.372c-1.243 1.586-1.208 1.621.378.378 1.666-1.307 2.195-2.128 1.372-2.128-.207 0-.995.787-1.75 1.75m-42.793 64.833c.048 1.165.285 1.402.604.605.289-.722.253-1.585-.079-1.917-.332-.332-.568.258-.525 1.312m-23 4c.048 1.165.285 1.402.604.605.289-.722.253-1.585-.079-1.917-.332-.332-.568.258-.525 1.312m22 0c.048 1.165.285 1.402.604.605.289-.722.253-1.585-.079-1.917-.332-.332-.568.258-.525 1.312m44.012 3.508c-.676 2.257-1.046 4.288-.821 4.513.225.225.963-1.438 1.639-3.695.676-2.257 1.046-4.288.821-4.513-.225-.225-.963 1.438-1.639 3.695m-3.059 10.295c-.736 2.627-2.048 5.487-2.917 6.356-1.307 1.307-1.324 1.494-.098 1.086 1.569-.523 5.299-9.38 4.703-11.167-.193-.579-.952 1.097-1.688 3.725m-11.479.114c.715 3.682 3.088 7.5 4.661 7.5.643 0 .416-.562-.503-1.25-.92-.687-2.363-3.05-3.207-5.25-1.167-3.043-1.395-3.282-.951-1M100 215.788c0 .641 1.101 1.887 2.446 2.769 1.898 1.243 2.851 1.35 4.25.475 1.619-1.012 1.581-1.067-.367-.537-1.491.405-2.824-.11-4.25-1.641-1.144-1.227-2.079-1.707-2.079-1.066" fill="#1976D2" fill-rule="evenodd"/><path fill-opacity=".322" d="M46.813 13.683c.721.289 1.584.253 1.916-.079.332-.332-.258-.568-1.312-.525-1.165.048-1.402.285-.604.604M28.872 21.75c-1.243 1.586-1.208 1.621.378.378C30.916 20.821 31.445 20 30.622 20c-.207 0-.995.788-1.75 1.75m-5.793 11.833c.048 1.165.285 1.402.604.605.289-.722.253-1.585-.079-1.917-.332-.332-.568.258-.525 1.312M46.75 36.08c-1.759 1.025-2.429 5.382-.966 6.286.431.267.768-.719.75-2.191-.029-2.259.44-2.721 3.013-2.973 1.676-.164 18.478 3.134 37.336 7.33 18.859 4.196 34.465 7.454 34.679 7.239.333-.333-71.171-16.832-72.562-16.742-.275.017-1.288.49-2.25 1.051m155.5.609c.963.252 2.537.252 3.5 0 .963-.251.175-.457-1.75-.457s-2.713.206-1.75.457M22.272 41c0 2.475.195 3.487.434 2.25.238-1.237.238-3.263 0-4.5-.239-1.237-.434-.225-.434 2.25m174.478-3.338c.688.278 1.813.278 2.5 0 .688-.277.125-.504-1.25-.504s-1.937.227-1.25.504m11.814.631c.376.986.935 1.541 1.243 1.233.308-.307.001-1.114-.683-1.793-.988-.98-1.102-.865-.56.56m-15.751.39c.721.289 1.584.253 1.916-.079.332-.332-.258-.568-1.312-.525-1.165.048-1.402.285-.604.604m-5.063.979c.688.278 1.813.278 2.5 0 .688-.277.125-.504-1.25-.504s-1.937.227-1.25.504m-3.937 1.021c.721.289 1.584.253 1.916-.079.332-.332-.258-.568-1.312-.525-1.165.048-1.402.285-.604.604m-5.063.979c.688.278 1.813.278 2.5 0 .688-.277.125-.504-1.25-.504s-1.937.227-1.25.504m-3.937 1.021c.721.289 1.584.253 1.916-.079.332-.332-.258-.568-1.312-.525-1.165.048-1.402.285-.604.604M167 44c-1.98.634-2.084.801-.5.801 1.1 0 3.125-.361 4.5-.801 1.98-.634 2.084-.801.5-.801-1.1 0-3.125.361-4.5.801M57.568 55c6.07 6.325 16.322 17.415 22.781 24.644 9.948 11.133 12.082 13.049 13.948 12.521l2.203-.624-2.248-.34c-1.384-.209-7.784-6.366-16.653-16.02C69.676 66.556 59.444 55.9 54.862 51.5c-6.519-6.26-5.93-5.498 2.706 3.5M158 46c-1.98.634-2.084.801-.5.801 1.1 0 3.125-.361 4.5-.801 1.98-.634 2.084-.801.5-.801-1.1 0-3.125.361-4.5.801m47.872.75c-1.243 1.586-1.208 1.621.378.378 1.666-1.307 2.195-2.128 1.372-2.128-.207 0-.995.788-1.75 1.75M23.15 49.609c-.128 2.647 1.623 5.096 11.783 16.482 6.619 7.418 11.475 13.657 10.905 14.009-.565.35.079.913 1.432 1.253 1.502.377 11.661 10.552 26.095 26.138C86.364 121.527 97 132.748 97 132.427c0-.451-44.574-49.206-47.017-51.427-.302-.275-6.234-6.827-13.182-14.56-8.681-9.662-12.767-14.979-13.066-17L23.3 46.5l-.15 3.109M149 48c-1.98.634-2.084.801-.5.801 1.1 0 3.125-.361 4.5-.801 1.98-.634 2.084-.801.5-.801-1.1 0-3.125.361-4.5.801m-9 2c-1.98.634-2.084.801-.5.801 1.1 0 3.125-.361 4.5-.801 1.98-.634 2.084-.801.5-.801-1.1 0-3.125.361-4.5.801m-9 1.96c-1.375.419-3.85.598-5.5.399l-3-.361 2.717.906c1.811.603 4.313.467 7.5-.41 2.631-.723 3.883-1.311 2.783-1.305-1.1.006-3.125.353-4.5.771m68.437 2.29L196.5 57.5l3.25-2.937c3.029-2.738 3.71-3.563 2.937-3.563-.172 0-1.635 1.462-3.25 3.25m25.063-1.76c-2.75.719-10.32 2.52-16.823 4.002-6.503 1.482-11.594 2.925-11.313 3.205.7.7 32.902-6.66 34.086-7.79 1.208-1.153.371-1.071-5.95.583m-32 7.51c-.34.55-.168 1 .382 1s1.278-.45 1.618-1c.34-.55.168-1-.382-1s-1.278.45-1.618 1m57.5 3.378c0 .207.787.995 1.75 1.75 1.586 1.243 1.621 1.208.378-.378-1.307-1.666-2.128-2.195-2.128-1.372m5 10.681c0 1.132.45 1.781 1 1.441.55-.34 1-1.266 1-2.059 0-.793-.45-1.441-1-1.441s-1 .927-1 2.059m-39.5 4.062c-6.05 1.617-20.675 5.146-32.5 7.842-11.825 2.696-20.825 4.985-20 5.088 1.93.239.238.566 20.983-4.047C193.886 84.802 202.31 83 202.703 83c.392 0-1.291 2.138-3.74 4.75-3.985 4.249-3.822 4.161 1.541-.834 5.734-5.34 6.433-5.683 15.996-7.862 12.266-2.793 15.013-2.588 14.966 1.121-.018 1.472.319 2.458.75 2.191 1.558-.963.735-4.287-1.439-5.809-2.731-1.914-1.972-1.992-15.277 1.564m-192.46-.669c-.663.799-.995 2.261-.739 3.25.375 1.442.49 1.362.583-.402.064-1.21.904-2.659 1.866-3.22.962-.561 1.243-1.033.622-1.05-.62-.016-1.669.623-2.332 1.422m6.773-.769c.721.289 1.584.253 1.916-.079.332-.332-.258-.568-1.312-.525-1.165.048-1.402.285-.604.604m4 1c.721.289 1.584.253 1.916-.079.332-.332-.258-.568-1.312-.525-1.165.048-1.402.285-.604.604m4 1c.721.289 1.584.253 1.916-.079.332-.332-.258-.568-1.312-.525-1.165.048-1.402.285-.604.604M255.029 82.5c-.401 7.172-3.527 11.341-30.279 40.391C210.037 138.867 198 152.182 198 152.48c0 .298 12.36-12.746 27.466-28.988 21.144-22.734 27.738-30.44 28.648-33.479.651-2.171 1.566-3.711 2.034-3.421 1.064.657.988-1.449-.148-4.092l-.859-2-.112 2M23 83.378c0 .207.788.995 1.75 1.75 1.586 1.243 1.621 1.208.378-.378C23.821 83.084 23 82.555 23 83.378m203.946 4.372L223.5 91.5l3.75-3.446c2.063-1.896 3.75-3.583 3.75-3.75 0-.764-.846-.044-4.054 3.446M149 93.5c-4.675 1.27-7.825 2.341-7 2.38.825.039 5.55-1.002 10.5-2.314s8.1-2.383 7-2.38c-1.1.003-5.825 1.044-10.5 2.314m-51.187-.817c.721.289 1.584.253 1.916-.079.332-.332-.258-.568-1.312-.525-1.165.048-1.402.285-.604.604M5.641 97.25c14.618 15.948 51.146 57.521 51.621 58.75.422 1.091.602 1.134.659.157C57.996 154.877 3.523 93 2.321 93c-.316 0 1.177 1.912 3.32 4.25M34 95.5c1.292 1.375 2.574 2.5 2.849 2.5.275 0-.557-1.125-1.849-2.5-1.292-1.375-2.574-2.5-2.849-2.5-.275 0 .557 1.125 1.849 2.5m67.75-1.838c.688.278 1.813.278 2.5 0 .688-.277.125-.504-1.25-.504s-1.937.227-1.25.504m5.063 1.021c.721.289 1.584.253 1.916-.079.332-.332-.258-.568-1.312-.525-1.165.048-1.402.285-.604.604m81.153 5.067-5.466 5.75 5.75-5.466c3.162-3.006 5.75-5.594 5.75-5.75 0-.742-.956.124-6.034 5.466m30.471-2.5-2.937 3.25 3.25-2.937c1.787-1.615 3.25-3.078 3.25-3.25 0-.773-.825-.092-3.563 2.937M110.75 95.662c.688.278 1.813.278 2.5 0 .688-.277.125-.504-1.25-.504s-1.937.227-1.25.504m5.063 1.021c.721.289 1.584.253 1.916-.079.332-.332-.258-.568-1.312-.525-1.165.048-1.402.285-.604.604m22 0c.721.289 1.584.253 1.916-.079.332-.332-.258-.568-1.312-.525-1.165.048-1.402.285-.604.604m-18 1c.721.289 1.584.253 1.916-.079.332-.332-.258-.568-1.312-.525-1.165.048-1.402.285-.604.604m14 0c.721.289 1.584.253 1.916-.079.332-.332-.258-.568-1.312-.525-1.165.048-1.402.285-.604.604M99 100.5c1.292 1.375 2.574 2.5 2.849 2.5.275 0-.557-1.125-1.849-2.5-1.292-1.375-2.574-2.5-2.849-2.5-.275 0 .557 1.125 1.849 2.5m24.75-1.838c.688.278 1.813.278 2.5 0 .688-.277.125-.504-1.25-.504s-1.937.227-1.25.504m6.063.021c.721.289 1.584.253 1.916-.079.332-.332-.258-.568-1.312-.525-1.165.048-1.402.285-.604.604M42 104.313c0 .172 1.462 1.635 3.25 3.25l3.25 2.937-2.937-3.25c-2.738-3.029-3.563-3.71-3.563-2.937m104.469 5.937-5.969 6.25 6.25-5.969c3.438-3.282 6.25-6.095 6.25-6.25 0-.739-.987.163-6.531 5.969m62.968-3-2.937 3.25 3.25-2.937c1.787-1.615 3.25-3.078 3.25-3.25 0-.773-.825-.092-3.563 2.937m-39.853 12.296C162.663 126.997 157 133.622 157 134.269c0 .647.759.063 1.687-1.296.928-1.36 6.834-7.986 13.124-14.723 6.29-6.737 11.194-12.25 10.897-12.25-.297 0-6.202 6.096-13.124 13.546M108 110.5c1.292 1.375 2.574 2.5 2.849 2.5.275 0-.557-1.125-1.849-2.5-1.292-1.375-2.574-2.5-2.849-2.5-.275 0 .557 1.125 1.849 2.5m92.924 6.25-2.424 2.75 2.75-2.424c2.57-2.266 3.209-3.076 2.424-3.076-.179 0-1.416 1.237-2.75 2.75M55 118.5c1.292 1.375 2.574 2.5 2.849 2.5.275 0-.557-1.125-1.849-2.5-1.292-1.375-2.574-2.5-2.849-2.5-.275 0 .557 1.125 1.849 2.5m136.924 8.25-2.424 2.75 2.75-2.424c2.57-2.266 3.209-3.076 2.424-3.076-.179 0-1.416 1.237-2.75 2.75M66 130.5c1.292 1.375 2.574 2.5 2.849 2.5.275 0-.557-1.125-1.849-2.5-1.292-1.375-2.574-2.5-2.849-2.5-.275 0 .557 1.125 1.849 2.5m117.924 5.25-2.424 2.75 2.75-2.424c2.57-2.266 3.209-3.076 2.424-3.076-.179 0-1.416 1.238-2.75 2.75M75.5 141c.995 1.1 2.035 2 2.31 2 .275 0-.315-.9-1.31-2-.995-1.1-2.035-2-2.31-2-.275 0 .315.9 1.31 2m78.579 2.583c.048 1.165.285 1.402.604.605.289-.722.253-1.585-.079-1.917-.332-.332-.568.258-.525 1.312m-32.605 28.079c-3.126 9.811-6.021 17.966-6.434 18.123-.412.157-.528 1.445-.257 2.863.352 1.84 2.318-3.217 6.874-17.683 3.51-11.143 6.183-20.458 5.941-20.701-.242-.242-2.998 7.587-6.124 17.398m75.605-16.079c.048 1.165.285 1.402.604.605.289-.722.253-1.585-.079-1.917-.332-.332-.568.258-.525 1.312m-50 11c.048 1.165.285 1.402.604.605.289-.722.253-1.585-.079-1.917-.332-.332-.568.258-.525 1.312M61.141 168c0 .825.386 2.4.859 3.5.542 1.261.859 1.445.859.5 0-.825-.386-2.4-.859-3.5-.542-1.261-.859-1.445-.859-.5m129.938 6.583c.048 1.165.285 1.402.604.605.289-.722.253-1.585-.079-1.917-.332-.332-.568.258-.525 1.312m-48 5c.048 1.165.285 1.402.604.605.289-.722.253-1.585-.079-1.917-.332-.332-.568.258-.525 1.312M66.152 184c0 .825.607 3.075 1.348 5 .741 1.925 1.348 2.825 1.348 2 0-.825-.607-3.075-1.348-5-.741-1.925-1.348-2.825-1.348-2m73.429 6.75c-.349 1.512-3.575 11.321-7.167 21.797-5.74 16.736-6.939 19.372-9.881 21.72-1.842 1.469-3.943 2.798-4.667 2.952-.725.155-1.928.848-2.673 1.54-.745.693-1.768 1.004-2.274.691-.505-.312-.919-.124-.919.418 0 .599-3.043.823-7.75.57-9.861-.528-10.25-.591-10.25-1.664 0-.49-.45-.614-1-.274-.55.34-1 .115-1-.5s-.374-.887-.832-.604c-.457.283-2.931-1.618-5.498-4.223-3.879-3.939-5.244-6.418-8.092-14.705-4.177-12.151-4.657-11.417-.676 1.032 2.159 6.75 3.907 10.166 6.992 13.662 10.849 12.296 26.7 13.036 39.45 1.841 3.678-3.229 3.735-3.243 5.935-1.382l2.221 1.879-1.975-2.327-1.975-2.328 6.201-18.672c6.428-19.359 7.816-24.173 6.966-24.173-.275 0-.786 1.238-1.136 2.75m45.498 2.833c.048 1.165.285 1.402.604.605.289-.722.253-1.585-.079-1.917-.332-.332-.568.258-.525 1.312M70.155 197c0 .825.83 3.75 1.845 6.5 1.015 2.75 1.845 4.325 1.845 3.5 0-.825-.83-3.75-1.845-6.5-1.015-2.75-1.845-4.325-1.845-3.5m43.924.583c.048 1.165.285 1.402.604.605.289-.722.253-1.585-.079-1.917-.332-.332-.568.258-.525 1.312m-1 4c.048 1.165.285 1.402.604.605.289-.722.253-1.585-.079-1.917-.332-.332-.568.258-.525 1.312m-1 4c.048 1.165.285 1.402.604.605.289-.722.253-1.585-.079-1.917-.332-.332-.568.258-.525 1.312m-1 4c.048 1.165.285 1.402.604.605.289-.722.253-1.585-.079-1.917-.332-.332-.568.258-.525 1.312M99 213.941c0 .518.445 1.216.989 1.552.566.35.734-.051.393-.941-.665-1.732-1.382-2.049-1.382-.611m73.935 15.68c-.771 1.441-3.434 4.428-5.918 6.638-2.485 2.21-3.55 3.514-2.369 2.899 2.377-1.239 10.352-9.942 10.352-11.299 0-1.476-.611-.954-2.065 1.762M158.5 241c-1.319.567-1.489.878-.5.914.825.031 2.175-.381 3-.914 1.828-1.181.249-1.181-2.5 0m-13.687.683c.721.289 1.584.253 1.916-.079.332-.332-.258-.568-1.312-.525-1.165.048-1.402.285-.604.604m4.937 1.023c1.238.238 3.262.238 4.5 0 1.238-.239.225-.434-2.25-.434s-3.488.195-2.25.434" fill="#1976D2" fill-rule="evenodd"/></svg>